<svg width="20" height="20" viewBox="0 0 24 24" fill="none" xmlns="http://www.w3.org/2000/svg">
  <path d="M12 21C16.9706 21 21 16.9706 21 12C21 7.02944 16.9706 3 12 3C7.02944 3 3 7.02944 3 12C3 16.9706 7.02944 21 12 21Z" stroke="currentColor" stroke-width="1.5" stroke-linecap="round" stroke-linejoin="round"/>
  <path d="M9.09021 9.00002C9.32533 8.33169 9.78903 7.76812 10.4 7.40903C11.011 7.04994 11.7309 6.91894 12.4324 7.03781C13.134 7.15668 13.7711 7.51896 14.2123 8.06113C14.6535 8.60331 14.8693 9.28761 14.82 9.98002C14.82 12 11.82 13 11.82 13" stroke="currentColor" stroke-width="1.5" stroke-linecap="round" stroke-linejoin="round"/>
  <path d="M12 17H12.01" stroke="currentColor" stroke-width="1.5" stroke-linecap="round" stroke-linejoin="round"/>
</svg>
