<?xml version="1.0" encoding="UTF-8"?>
<svg xmlns="http://www.w3.org/2000/svg" xmlns:xlink="http://www.w3.org/1999/xlink" width="150px" height="30px" viewBox="0 0 148 30" version="1.1">
<g id="surface1">
<path style=" stroke:none;fill-rule:nonzero;fill:rgb(80.000001%,0%,0%);fill-opacity:1;" d="M 101.996094 22.515625 C 102.765625 23.308594 103.179688 24.382812 103.136719 25.488281 C 103.175781 26.597656 102.765625 27.675781 101.996094 28.476562 C 101.21875 29.265625 100.144531 29.691406 99.039062 29.652344 C 97.949219 29.6875 96.894531 29.257812 96.132812 28.476562 C 94.621094 26.777344 94.621094 24.210938 96.132812 22.515625 C 96.90625 21.738281 97.96875 21.328125 99.058594 21.371094 C 100.15625 21.335938 101.214844 21.75 101.996094 22.515625 Z M 101.996094 22.515625 "/>
<path style=" stroke:none;fill-rule:nonzero;fill:rgb(0%,0%,0%);fill-opacity:1;" d="M 0.09375 0.660156 L 8.101562 0.660156 L 15.214844 21.351562 L 22.367188 0.660156 L 30.003906 0.660156 L 18.871094 29.265625 L 11.164062 29.265625 Z M 52.855469 2.453125 C 55.078125 3.585938 56.933594 5.332031 58.199219 7.488281 C 60.761719 12.128906 60.761719 17.765625 58.199219 22.402344 C 56.914062 24.582031 55.019531 26.339844 52.757812 27.460938 C 50.246094 28.703125 47.472656 29.320312 44.671875 29.265625 L 32.683594 29.265625 L 32.683594 0.660156 L 44.960938 0.660156 C 47.699219 0.601562 50.410156 1.21875 52.863281 2.453125 Z M 48.984375 22.230469 C 50.105469 21.53125 51.007812 20.523438 51.582031 19.328125 C 52.222656 17.992188 52.539062 16.527344 52.511719 15.046875 C 52.546875 13.542969 52.203125 12.058594 51.515625 10.71875 C 50.890625 9.507812 49.941406 8.496094 48.769531 7.800781 C 47.5625 7.09375 46.1875 6.734375 44.792969 6.757812 L 40.113281 6.757812 L 40.113281 23.242188 L 45.148438 23.242188 C 46.496094 23.273438 47.824219 22.917969 48.984375 22.230469 Z M 84.761719 2.152344 C 89.460938 4.648438 92.371094 9.578125 92.300781 14.917969 C 92.378906 20.304688 89.476562 25.289062 84.761719 27.855469 C 79.835938 30.457031 73.957031 30.457031 69.03125 27.855469 C 66.738281 26.613281 64.828125 24.765625 63.503906 22.511719 C 62.15625 20.207031 61.460938 17.570312 61.496094 14.898438 C 61.421875 9.558594 64.332031 4.625 69.03125 2.128906 C 73.964844 -0.429688 79.828125 -0.429688 84.761719 2.128906 Z M 73.039062 7.636719 C 71.832031 8.375 70.839844 9.421875 70.175781 10.675781 C 68.75 13.355469 68.75 16.566406 70.175781 19.246094 C 70.851562 20.496094 71.839844 21.550781 73.039062 22.308594 C 74.207031 23.050781 75.558594 23.4375 76.941406 23.429688 C 78.316406 23.441406 79.667969 23.050781 80.824219 22.308594 C 82.011719 21.554688 82.980469 20.5 83.628906 19.246094 C 84.980469 16.550781 84.980469 13.371094 83.628906 10.675781 C 82.984375 9.425781 82.015625 8.375 80.824219 7.636719 C 79.660156 6.90625 78.316406 6.523438 76.941406 6.53125 C 75.566406 6.527344 74.214844 6.914062 73.039062 7.636719 Z M 129.988281 29.265625 L 128.042969 24.203125 L 115.726562 24.203125 L 113.738281 29.265625 L 106.101562 29.265625 L 118.332031 0.660156 L 125.96875 0.660156 L 137.914062 29.265625 Z M 117.960938 18.492188 L 125.84375 18.492188 L 121.941406 8.292969 Z M 140.472656 0.660156 L 147.90625 0.660156 L 147.90625 29.265625 L 140.472656 29.265625 Z M 140.472656 0.660156 "/>
</g>
</svg>
